<svg width="36" height="36" viewBox="0 0 36 36" fill="none" xmlns="http://www.w3.org/2000/svg">
<g clip-path="url(#clip0_3_5)">
<path d="M30.4762 6.54075C28.1419 5.46945 25.6787 4.70485 23.148 4.266C23.101 4.25809 23.0542 4.28062 23.031 4.32225C22.7138 4.88475 22.3628 5.6205 22.1175 6.1965C19.3896 5.78252 16.6149 5.78252 13.887 6.1965C13.6134 5.55484 13.3039 4.9291 12.96 4.32225C12.9364 4.28112 12.8899 4.25877 12.843 4.266C10.3118 4.7025 7.848 5.4675 5.51475 6.54075C5.49478 6.54837 5.47808 6.56269 5.4675 6.58125C0.801 13.554 -0.47925 20.3558 0.1485 27.072C0.15075 27.1035 0.171 27.135 0.19575 27.1553C2.91313 29.1681 5.95258 30.705 9.1845 31.7003C9.23133 31.715 9.28233 31.6977 9.3105 31.6575C10.0035 30.7125 10.62 29.7157 11.151 28.6672C11.1737 28.6229 11.1646 28.5689 11.1285 28.5345C11.1169 28.5235 11.1031 28.5151 11.088 28.5098C10.1186 28.1372 9.17976 27.6896 8.28 27.171C8.2278 27.1414 8.208 27.0761 8.235 27.0225C8.24266 27.0057 8.25423 26.9911 8.26875 26.9797C8.45775 26.838 8.64675 26.6895 8.82675 26.541C8.85915 26.5149 8.90328 26.5089 8.9415 26.5252C14.8342 29.2162 21.213 29.2162 27.0338 26.5252C27.0734 26.5081 27.1192 26.5142 27.153 26.541C27.333 26.6895 27.522 26.838 27.711 26.9797C27.7421 27.0025 27.7597 27.0393 27.7579 27.0778C27.7561 27.1163 27.7351 27.1513 27.702 27.171C26.8043 27.6943 25.8642 28.1414 24.8918 28.5075C24.8603 28.5189 24.8356 28.5436 24.8242 28.575C24.8137 28.6054 24.8162 28.6387 24.831 28.6672C25.371 29.7135 25.9897 30.7125 26.6693 31.6575C26.6974 31.6977 26.7484 31.715 26.7952 31.7003C30.0326 30.7081 33.077 29.171 35.7975 27.1553C35.8251 27.1361 35.8425 27.1055 35.8447 27.072C36.5962 19.3073 34.587 12.5618 30.5212 6.5835C30.513 6.56353 30.4966 6.548 30.4762 6.54075ZM12.0308 22.9815C10.2555 22.9815 8.79525 21.3525 8.79525 19.3545C8.79525 17.3542 10.2285 15.7253 12.0308 15.7253C13.8465 15.7253 15.2933 17.3678 15.2662 19.3545C15.2662 21.3525 13.833 22.9815 12.0308 22.9815ZM23.9918 22.9815C22.2188 22.9815 20.7563 21.3525 20.7563 19.3545C20.7563 17.3542 22.1895 15.7253 23.9918 15.7253C25.8075 15.7253 27.2565 17.3678 27.2272 19.3545C27.2272 21.3525 25.8075 22.9815 23.9918 22.9815Z" fill="white"/>
</g>
<defs>
<clipPath id="clip0_3_5">
<rect width="36" height="36" fill="white"/>
</clipPath>
</defs>
</svg>
